<?xml version="1.0" encoding="UTF-8"?>
<svg width="52px" height="25px" viewBox="0 0 52 25" version="1.1" xmlns="http://www.w3.org/2000/svg" xmlns:xlink="http://www.w3.org/1999/xlink">
    <!-- Generator: Sketch 50.2 (55047) - http://www.bohemiancoding.com/sketch -->
    <title>Group</title>
    <desc>Created with Sketch.</desc>
    <defs>
        <polygon id="path-1" points="0.4544 0.583328571 7.936 0.583328571 7.936 8.99961429 0.4544 8.99961429"></polygon>
        <polygon id="path-3" points="0.000314814815 0.0375 16.9921296 0.0375 16.9921296 24.988375 0.000314814815 24.988375"></polygon>
    </defs>
    <g id="Page-1" stroke="none" stroke-width="1" fill="none" fill-rule="evenodd">
        <g id="Group">
            <g id="Page-1">
                <g id="Group-3" transform="translate(44.000000, 16.000000)">
                    <mask id="mask-2" fill="white">
                        <use xlink:href="#path-1"></use>
                    </mask>
                    <g id="Clip-2"></g>
                    <path d="M7.93611429,4.79147143 C7.93611429,7.11604286 6.26125714,8.99961429 4.19497143,8.99961429 C2.12925714,8.99961429 0.4544,7.11604286 0.4544,4.79147143 C0.4544,2.46754286 2.12925714,0.583328571 4.19497143,0.583328571 C6.26125714,0.583328571 7.93611429,2.46754286 7.93611429,4.79147143" id="Fill-1" fill="#2AB554" mask="url(#mask-2)"></path>
                </g>
                <path d="M38.7505649,8.37205214 C38.7505649,3.06401788 34.5233409,0 29.8896289,0 L19,0 L19,25 L25.4220088,25 L25.4220088,16.7026647 L27.7641532,16.7026647 L32.5308635,25 L40,25 L34.5233409,15.5794008 C36.9922395,14.253334 38.7505649,11.7713539 38.7505649,8.37205214 M29.2795849,11.1579225 L25.4220088,11.1579225 L25.4220088,5.54662581 L29.2795849,5.54662581 C31.0098121,5.54662581 32.2211584,6.60145164 32.2211584,8.37205214 C32.2211584,10.135746 31.0098121,11.1579225 29.2795849,11.1579225" id="Fill-4" fill="#000000"></path>
                <g id="Group-8">
                    <mask id="mask-4" fill="white">
                        <use xlink:href="#path-3"></use>
                    </mask>
                    <g id="Clip-7"></g>
                    <polygon id="Fill-6" fill="#000000" mask="url(#mask-4)" points="0.000314814815 0.037125 0.000314814815 24.988375 16.9921296 24.988375 16.9921296 19.11525 6.49557407 19.11525 6.49557407 15.04525 15.2833148 15.04525 15.2833148 9.652125 6.49557407 9.652125 6.49557407 5.914625 16.7169815 5.914625 16.7169815 0.037125"></polygon>
                </g>
            </g>
        </g>
    </g>
</svg>