<?xml version="1.0" encoding="UTF-8"?>
<svg width="253px" height="27px" viewBox="0 0 253 27" version="1.1" xmlns="http://www.w3.org/2000/svg" xmlns:xlink="http://www.w3.org/1999/xlink">
    <!-- Generator: Sketch 50 (54983) - http://www.bohemiancoding.com/sketch -->
    <title>Page 1</title>
    <desc>Created with Sketch.</desc>
    <defs>
        <polygon id="path-1" points="0 26.4491 252.428 26.4491 252.428 0.0001 0 0.0001"></polygon>
    </defs>
    <g id="Page-1" stroke="none" stroke-width="1" fill="none" fill-rule="evenodd">
        <g>
            <path d="M148.8101,8.7929 C148.8101,3.2699 144.3871,0.0799 139.5371,0.0799 L128.1431,0.0799 L128.1431,26.0969 L134.8631,26.0969 L134.8631,17.4619 L137.3131,17.4619 L142.3011,26.0969 L150.1171,26.0969 L144.3871,16.2929 C146.9691,14.9129 148.8101,12.3299 148.8101,8.7929 M138.8991,11.6919 L134.8631,11.6919 L134.8631,5.8529 L138.8991,5.8529 C140.7091,5.8529 141.9771,6.9499 141.9771,8.7929 C141.9771,10.6279 140.7091,11.6919 138.8991,11.6919" id="Fill-1" fill="#FFFFFF"></path>
            <path d="M164.1339,8.0478 L163.7859,9.9278 C162.9339,8.6498 161.2689,7.6968 158.8589,7.6968 C154.1899,7.6968 151.0079,11.6578 151.0079,17.0788 C151.0079,22.4858 154.1899,26.4488 158.8589,26.4488 C161.2689,26.4488 162.9339,25.4948 163.7859,24.2558 L164.1339,26.0968 L169.9379,26.0968 L169.9379,8.0478 L164.1339,8.0478 Z M163.4259,19.1368 L163.4259,19.1578 C163.4089,19.1948 163.3899,19.2268 163.3649,19.2578 C162.8999,20.1398 162.1139,20.6678 161.1119,20.7868 C161.0929,20.7968 161.0839,20.7968 161.0709,20.7968 C161.0399,20.7968 161.0129,20.8018 160.9789,20.8018 C160.8539,20.8118 160.7259,20.8208 160.5939,20.8208 C160.0589,20.8208 159.5839,20.7068 159.1679,20.4808 C158.1159,19.9438 157.4739,18.7718 157.4739,17.0718 C157.4739,15.2738 158.3909,13.3278 160.5939,13.3278 C162.0489,13.3278 162.8779,13.9418 163.3799,14.9128 C163.3969,14.9348 163.4139,14.9588 163.4259,14.9878 L163.4259,15.0078 C163.6939,15.5698 163.8409,16.2538 163.8409,17.0718 C163.8409,17.8798 163.6939,18.5688 163.4259,19.1368 Z" id="Fill-3" fill="#FFFFFF"></path>
            <mask id="mask-2" fill="white">
                <use xlink:href="#path-1"></use>
            </mask>
            <g id="Clip-6"></g>
            <polygon id="Fill-5" fill="#FFFFFF" mask="url(#mask-2)" points="192.622 26.0971 199.135 26.0971 199.135 8.0481 192.622 8.0481"></polygon>
            <path d="M225.1124,7.6972 C222.4604,7.6972 220.7584,8.8972 219.5574,10.6282 C218.4904,8.7542 216.7204,7.6972 214.2864,7.6972 C211.9104,7.6972 210.3524,8.6122 209.4994,9.8562 L209.1854,8.0482 L203.3794,8.0482 L203.3794,26.0962 L209.8904,26.0962 L209.8904,15.3392 C210.3164,14.6012 211.0954,13.7882 212.3354,13.7882 C213.6104,13.7882 214.2114,14.7662 214.2114,16.2292 L214.2114,26.0962 L220.7244,26.0962 L220.7244,15.3392 C221.1494,14.6012 221.9254,13.7882 223.1674,13.7882 C224.4434,13.7882 225.0404,14.7662 225.0404,16.2292 L225.0404,26.0962 L231.5534,26.0962 L231.5534,15.8692 C231.5534,10.8442 229.3544,7.6972 225.1124,7.6972" id="Fill-7" fill="#FFFFFF" mask="url(#mask-2)"></path>
            <path d="M185.2862,18.54 L185.2862,18.522 C185.2262,18.69 185.1602,18.85 185.0902,18.988 C185.0792,19 185.0722,19.027 185.0582,19.046 L185.0552,19.054 C184.4192,20.207 183.4642,20.86 182.1042,20.86 C180.1552,20.86 179.0932,19.129 179.0932,17.072 C179.0932,16.707 179.2442,15.135 179.9382,14.307 C180.6362,13.504 183.9762,11.305 184.8332,8.089 C183.9862,7.831 183.0662,7.697 182.0682,7.697 C179.7602,7.697 177.7042,8.405 176.0872,9.643 C176.0052,9.701 175.9162,9.769 175.8382,9.827 C173.7792,11.512 172.5112,14.059 172.5112,17.072 C172.5112,18.274 172.7152,19.409 173.0902,20.436 C174.4022,24.049 177.8222,26.449 182.0682,26.449 C185.5042,26.449 188.0152,24.862 189.6412,22.167 C190.0942,21.436 190.3352,20.724 190.5392,20.079 L185.2862,18.54 Z" id="Fill-8" fill="#FFFFFF" mask="url(#mask-2)"></path>
            <path d="M251.8487,13.7128 C250.5367,10.0878 247.1117,7.6968 242.8707,7.6968 C239.4357,7.6968 236.8287,9.2918 235.2007,11.9888 L235.2027,11.9888 C234.1437,13.8468 233.9327,16.2388 233.9327,16.2388 C233.9127,16.4758 233.9027,17.4298 233.9027,17.4298 L233.9327,17.4298 L239.5357,17.4278 C239.5357,15.2438 240.5767,14.1648 240.6557,14.0848 C241.2247,13.5708 241.9437,13.2888 242.8317,13.2888 C244.7797,13.2888 245.8397,15.0178 245.8397,17.0788 L245.8397,17.2858 C245.7987,18.3428 245.4737,19.3068 244.8827,19.9638 C244.4217,20.5578 240.4847,23.0678 240.1077,26.0528 C240.9537,26.3158 241.8697,26.4488 242.8707,26.4488 C245.1717,26.4488 247.2377,25.7358 248.8517,24.5188 C248.9357,24.4478 249.0167,24.3848 249.1007,24.3208 C251.1607,22.6368 252.4287,20.0878 252.4287,17.0788 C252.4287,15.8688 252.2237,14.7368 251.8487,13.7128" id="Fill-9" fill="#FFFFFF" mask="url(#mask-2)"></path>
            <polygon id="Fill-10" fill="#FFFFFF" mask="url(#mask-2)" points="0.0001 -0.0001 0.0001 26.0839 17.6331 26.0839 17.6331 19.9439 6.7411 19.9439 6.7411 15.6889 15.8601 15.6889 15.8601 10.0519 6.7411 10.0519 6.7411 6.1449 17.3471 6.1449 17.3471 -0.0001"></polygon>
            <path d="M35.0914,9.54 L32.7834,14.017 C31.8234,13.209 30.3714,12.496 28.6354,12.496 C27.4574,12.496 26.9654,12.844 26.9654,13.45 C26.9654,13.988 27.3564,14.3 29.8384,14.903 C33.3534,15.753 35.1644,17.462 35.1644,20.159 C35.1644,23.918 32.0334,26.43 26.7894,26.43 C24.0514,26.43 21.2534,25.658 19.7594,24.307 L22.1334,19.843 C23.2384,20.797 24.8694,21.575 26.8214,21.575 C28.0264,21.575 28.6354,21.293 28.6354,20.624 C28.6354,20.018 28.3164,19.592 26.1484,19.054 C22.3124,18.1 20.4374,16.722 20.4374,13.91 C20.4374,10.158 23.4194,7.637 28.6354,7.637 C31.1874,7.637 33.7064,8.309 35.0914,9.54" id="Fill-11" fill="#FFFFFF" mask="url(#mask-2)"></path>
            <path d="M46.0176,7.9872 L50.8046,7.9872 L50.8046,13.4502 L46.0176,13.4502 L46.0176,18.7472 C46.0176,19.8822 46.7976,20.6242 48.0396,20.6242 C49.0006,20.6242 49.6706,20.3732 50.1666,20.1202 L51.7296,25.2372 C50.7006,25.8652 49.2826,26.4292 47.3996,26.4292 C42.4986,26.4292 39.4846,23.6722 39.4846,18.8102 L39.4846,13.4502 L36.4356,13.4502 L36.4356,7.9872 L39.4846,7.9872 L39.4846,2.0642 L46.0176,2.0642 L46.0176,7.9872 Z" id="Fill-12" fill="#FFFFFF" mask="url(#mask-2)"></path>
            <path d="M71.1734,26.0839 L65.3524,26.0839 L65.0334,24.2679 C64.1484,25.5559 62.5834,26.4299 60.1734,26.4299 C55.8094,26.4299 53.6114,23.2789 53.6114,18.2399 L53.6114,7.9869 L60.1384,7.9869 L60.1384,17.8899 C60.1384,19.3489 60.7784,20.3389 62.1224,20.3389 C63.4374,20.3389 64.2204,19.5169 64.6414,18.7759 L64.6414,7.9869 L71.1734,7.9869 L71.1734,26.0839 Z" id="Fill-13" fill="#FFFFFF" mask="url(#mask-2)"></path>
            <path d="M93.1363,26.0839 L87.3153,26.0839 L86.9653,24.2439 C86.1133,25.4799 84.4433,26.4299 82.0283,26.4299 C77.3453,26.4299 74.1493,22.4639 74.1493,17.0379 C74.1493,11.6059 77.3453,7.6269 82.0283,7.6269 C84.5143,7.6269 85.8993,8.5959 86.6073,9.4039 L86.6073,0.0799 L93.1363,0.0799 L93.1363,26.0839 Z M80.7533,17.0379 C80.7533,19.4499 81.9603,20.7969 83.7633,20.7969 C85.1513,20.7969 86.0403,20.0569 86.6073,19.1289 L86.6073,14.9789 C86.0403,14.0169 85.1513,13.2759 83.7633,13.2759 C81.9603,13.2759 80.7533,14.6229 80.7533,17.0379 Z" id="Fill-14" fill="#FFFFFF" mask="url(#mask-2)"></path>
            <polygon id="Fill-15" fill="#FFFFFF" mask="url(#mask-2)" points="96.118 26.0971 102.627 26.0971 102.627 8.0481 96.118 8.0481"></polygon>
            <path d="M123.815,13.7128 C122.504,10.0878 119.079,7.6968 114.834,7.6968 C111.401,7.6968 108.796,9.2918 107.167,11.9888 L107.17,11.9888 C106.116,13.8468 105.907,16.2388 105.907,16.2388 C105.878,16.4758 105.868,17.4298 105.868,17.4298 L105.907,17.4298 L111.501,17.4278 C111.501,15.2438 112.544,14.1648 112.628,14.0848 C113.195,13.5708 113.916,13.2888 114.797,13.2888 C116.746,13.2888 117.806,15.0178 117.806,17.0788 C117.806,17.1408 117.806,17.2208 117.802,17.2858 C117.769,18.3428 117.443,19.3068 116.849,19.9638 C116.393,20.5578 112.458,23.0678 112.068,26.0528 C112.915,26.3158 113.836,26.4488 114.834,26.4488 C117.144,26.4488 119.201,25.7358 120.817,24.5188 C120.901,24.4478 120.985,24.3848 121.063,24.3208 C123.125,22.6368 124.394,20.0878 124.394,17.0788 C124.394,15.8688 124.186,14.7368 123.815,13.7128" id="Fill-16" fill="#FFFFFF" mask="url(#mask-2)"></path>
        </g>
    </g>
</svg>