<?xml version="1.0" encoding="UTF-8"?>
<svg width="99px" height="43px" viewBox="0 0 99 43" version="1.1" xmlns="http://www.w3.org/2000/svg" xmlns:xlink="http://www.w3.org/1999/xlink">
    <!-- Generator: Sketch 50.2 (55047) - http://www.bohemiancoding.com/sketch -->
    <title>Page 1</title>
    <desc>Created with Sketch.</desc>
    <defs>
        <polygon id="path-1" points="0.230136449 0.205908571 51.7871185 0.205908571 51.7871185 42.9660177 0.230136449 42.9660177"></polygon>
        <polygon id="path-3" points="0 0.221471697 53.9287784 0.221471697 53.9287784 42.9999263 0 42.9999263"></polygon>
    </defs>
    <g id="Page-1" stroke="none" stroke-width="1" fill="none" fill-rule="evenodd">
        <g>
            <g id="Group-3" transform="translate(47.000000, 0.000000)">
                <mask id="mask-2" fill="white">
                    <use xlink:href="#path-1"></use>
                </mask>
                <g id="Clip-2"></g>
                <path d="M26.2743607,35.4368406 C27.0337065,35.6670749 27.8161364,35.8339149 28.6005103,35.932692 C29.3705477,36.0349091 30.1311084,36.0855263 30.8848654,36.0860177 C32.1294636,36.0688177 33.365314,35.879372 34.5591271,35.5225949 L34.5936318,35.5125206 C36.9299869,34.8412291 39.0704916,33.5664634 40.7840617,31.8260691 L40.8044729,31.8054291 C43.2224729,29.3905491 44.6901364,26.1726749 44.936772,22.7452063 C45.0623981,21.1360234 44.9294822,19.5472349 44.5438561,18.0019377 C44.0758561,16.1202577 43.245071,14.3909206 42.0738561,12.8581549 C40.9757813,11.4062291 39.6522112,10.1953491 38.1286598,9.245172 C36.823557,8.433332 35.4018187,7.84263486 33.9049963,7.49200057 C33.2168467,7.34260629 32.5126598,7.23056057 31.8116318,7.15856629 C30.8576505,7.05364629 29.9150897,7.06298343 28.9873514,7.18412057 C27.1107346,7.42098914 25.3043421,7.95320629 23.6060804,8.76750343 C20.731015,10.1857663 18.0396505,11.9694063 15.606828,14.0687891 L15.5599308,14.1085949 C13.9622673,15.4376634 10.1414822,19.0776749 7.50551963,21.6276977 C8.81766916,22.912292 10.1920243,24.2438177 11.5352766,25.5134234 L11.5739121,25.550772 C14.1680804,28.0811377 17.0040243,30.3896234 20.002772,32.411852 C21.9377065,33.7092234 24.0505103,34.7284463 26.2743607,35.4368406 Z M30.895314,42.9660177 C29.8424355,42.9660177 28.7798374,42.8954977 27.7369215,42.7566691 C26.5907346,42.6126806 25.4238935,42.3632806 24.292529,42.0185434 L24.2546224,42.0067491 C21.4143047,41.104732 18.7163794,39.8039206 16.2356879,38.141172 C12.8991832,35.8911663 9.75099626,33.3293491 6.87009907,30.521572 C4.58963178,28.3656749 2.23966916,26.0537491 0.240342056,24.0759949 L2.61970654,21.6168863 L0.230136449,19.1685891 C1.31338879,18.087692 8.52632336,11.0568234 11.2138,8.815172 C14.0815757,6.34377771 17.2533327,4.24439486 20.6411084,2.575012 L20.6717252,2.56002343 C23.0306785,1.42678914 25.540529,0.685960571 28.1312953,0.358669143 C29.5778187,0.170452 31.0590897,0.155709143 32.5223794,0.316160571 C33.4581364,0.412234857 34.4218374,0.566297714 35.3631832,0.771960571 L35.4076505,0.782034857 C37.6353888,1.30000057 39.7513514,2.17670914 41.6972206,3.38758914 C43.9334636,4.78201771 45.8742299,6.55730343 47.4680056,8.665532 C49.2049028,10.937652 50.4441551,13.5181434 51.1410523,16.3207606 C51.7079495,18.5909149 51.903557,20.9286406 51.720828,23.2656291 C51.3563421,28.3300463 49.1808467,33.1045206 45.5960056,36.6899834 C43.0681738,39.2542577 39.9126972,41.1337263 36.4692766,42.1259206 C34.6750336,42.6601034 32.8176131,42.9426749 30.947314,42.965772 L30.9079495,42.9660177 L30.895314,42.9660177 Z" id="Fill-1" fill="#C5A459" mask="url(#mask-2)"></path>
            </g>
            <g id="Group-6">
                <mask id="mask-4" fill="white">
                    <use xlink:href="#path-3"></use>
                </mask>
                <g id="Clip-5"></g>
                <path d="M7.10421081,18.5855091 C6.95218378,19.3059434 6.86194054,20.0440691 6.83615676,20.7797377 L6.83323784,20.850012 C6.67537297,23.7096349 7.35985946,26.5218349 8.81275135,28.9816806 C10.3763189,31.6454691 12.7883189,33.7622977 15.6094541,34.9498349 C16.692373,35.4061263 17.826373,35.7371034 18.9815351,35.9334291 C20.0214,36.113292 21.0714811,36.163172 22.1140216,36.0830691 C24.4987784,35.8761777 26.7879405,35.2122577 28.9180216,34.1102291 C30.6679135,33.2163206 32.3321838,32.1685949 33.8809135,30.9872006 C35.6473459,29.6551834 37.4925892,28.0931777 39.7026973,26.0603834 C40.9532108,24.9099491 42.781427,23.0921549 44.2627784,21.6048463 C42.3946703,19.728572 39.8858595,17.2451377 38.4395351,15.9556291 L38.4071838,15.9263891 C36.3627243,14.056012 34.1584541,12.3303606 31.8556703,10.7973491 C29.7895622,9.45648629 27.5526973,8.40188057 25.2073459,7.662772 C22.5039405,6.888772 19.6548324,6.916292 16.9657784,7.741892 C12.9958054,8.99282343 9.74850811,11.9101891 8.05553514,15.7472634 C7.66342703,16.6495263 7.34112973,17.6097777 7.10421081,18.5855091 M21.1466432,42.9999263 C20.0391568,42.9999263 18.9321568,42.9053263 17.8407243,42.7161263 C16.1847243,42.4347834 14.548427,41.9573606 12.9880216,41.2995834 C8.82296757,39.5466577 5.26091351,36.4206806 2.9591027,32.4985891 C0.818805405,28.8747949 -0.195275676,24.7241891 0.0309405405,20.5018349 C0.0730216216,19.3563149 0.216291892,18.2078463 0.456616216,17.0876349 L0.475345946,17.0055663 C0.806643243,15.624652 1.26150811,14.2648691 1.82704865,12.9640577 C4.32661622,7.29886914 9.10780541,3.00648629 14.9524541,1.16928057 L14.9716703,1.16338343 C18.9338595,-0.0556051429 23.1332108,-0.0922165714 27.1158324,1.05821771 L27.1888054,1.08008629 C30.1415351,2.00593771 32.9565892,3.33205771 35.5556432,5.020852 L35.5862919,5.04100057 C38.1790216,6.76591486 40.6608324,8.70754914 42.9631297,10.812092 C45.6037784,13.1697206 50.9947784,18.6692977 51.5248054,19.2206806 L53.9287784,21.7215606 L51.4211838,24.1167834 C51.2912919,24.2408691 50.7975081,24.7384406 50.2747784,25.2654977 C48.6851838,26.8678006 46.0245892,29.5500177 44.2880757,31.1474063 C41.9106162,33.3342634 39.9028865,35.0319034 37.9700757,36.4892349 C36.1134,37.905532 34.1020216,39.1719434 32.0069676,40.2417834 C29.0977784,41.7472749 25.953373,42.657892 22.6776162,42.9392349 L22.6508595,42.941692 C22.1502649,42.9805149 21.6482108,42.9999263 21.1466432,42.9999263" id="Fill-4" fill="#C5A459" mask="url(#mask-4)"></path>
            </g>
        </g>
    </g>
</svg>